<?xml version="1.0" encoding="iso-8859-1"?>
<!-- Generator: Adobe Illustrator 16.0.0, SVG Export Plug-In . SVG Version: 6.00 Build 0)  -->
<!DOCTYPE svg PUBLIC "-//W3C//DTD SVG 1.1//EN" "http://www.w3.org/Graphics/SVG/1.1/DTD/svg11.dtd">
<svg version="1.1" id="Capa_1" xmlns="http://www.w3.org/2000/svg" xmlns:xlink="http://www.w3.org/1999/xlink" x="0px" y="0px"
	 width="99.325px" height="99.325px" viewBox="0 0 99.325 99.325" style="enable-background:new 0 0 99.325 99.325;"
	 xml:space="preserve">
<g>
	<g>
		<path d="M99.301,60.244c-0.007-0.407-0.314-0.745-0.719-0.792l-1.326-0.15l-0.026-1.353l0.641-0.59
			c0.353-0.327,0.55-0.788,0.541-1.269l-0.08-4.219c-0.015-0.801-0.594-1.479-1.382-1.621c0,0-0.739-16.364-4.154-19.386
			c-3.75-3.321-66.754-3.699-80.39-0.823c-1.117,0.235-2.132,0.816-2.898,1.662c-2.844,3.14-5.724,9.506-5.724,9.506
			s-1.717,0.477-2.402,2.924c-0.245,0.877-0.274,3.102-0.206,5.693l-0.088,0.002C0.475,49.841-0.011,50.346,0,50.957l0.047,2.45
			c0.005,0.294,0.127,0.572,0.339,0.777c0.212,0.203,0.496,0.313,0.79,0.31l0.196-0.003c0.072,1.328,0.153,2.611,0.229,3.732
			c0.146,2.159,1.943,3.835,4.108,3.834l6.867-0.004l2.56-5.704c0.476-1.06,1.521-1.75,2.682-1.771l5.967-0.114
			c1.104-0.021,2.131,0.567,2.673,1.53l3.406,6.05l38.994-0.022l3.116-5.946c0.53-1.013,1.579-1.646,2.722-1.645l5.688,0.007
			c1.125,0.001,2.16,0.618,2.695,1.608l4.834,8.938l5.937-0.074c1.063-0.021,2.011-0.681,2.4-1.669l2.547-0.94
			c0.324-0.12,0.537-0.431,0.529-0.774L99.301,60.244z M9.961,41.373c-0.545,0.011-1.058-0.258-1.361-0.711
			c-0.303-0.453-0.353-1.03-0.134-1.529l2.46-5.607c0.226-0.516,0.73-0.852,1.292-0.862l0.895-0.017l0.083,8.664L9.961,41.373z
			 M28.092,39.749c-0.059,0.728-0.659,1.292-1.389,1.306l-12.784,0.243l-0.082-8.666l13.284-0.253
			c0.401-0.008,0.787,0.155,1.062,0.446c0.275,0.293,0.413,0.688,0.381,1.089L28.092,39.749z M57.286,40.635
			c-0.269,0.271-0.636,0.424-1.019,0.422l-21.862-0.116c-0.771-0.004-1.397-0.622-1.412-1.393l-0.111-5.818
			c-0.007-0.383,0.141-0.754,0.41-1.025c0.269-0.273,0.637-0.426,1.021-0.422l21.863,0.174c0.77,0.006,1.395,0.624,1.409,1.394
			l0.109,5.761C57.703,39.992,57.555,40.362,57.286,40.635z M86.812,40.506c-0.271,0.33-0.677,0.521-1.104,0.521l-23.166-0.089
			c-0.771-0.003-1.398-0.622-1.414-1.394l-0.109-5.816c-0.008-0.383,0.14-0.753,0.409-1.024c0.271-0.273,0.639-0.426,1.021-0.423
			l20.539,0.164c1.579,0.013,2.934,1.126,3.251,2.673l0.865,4.202C87.19,39.738,87.083,40.173,86.812,40.506z"/>
		<path d="M20.931,56.037c-4.192,0.041-7.558,3.47-7.519,7.662c0.003,0.325,0.033,0.641,0.076,0.954
			c0.505,3.737,3.718,6.603,7.586,6.564c3.976-0.037,7.201-3.122,7.494-7.014c0.016-0.215,0.029-0.432,0.027-0.649
			C28.556,59.362,25.125,55.998,20.931,56.037z M20.302,58.926l0.021,2.184c-0.239,0.063-0.461,0.16-0.668,0.286l-1.562-1.53
			C18.724,59.375,19.476,59.048,20.302,58.926z M17.174,60.804l1.564,1.533c-0.12,0.21-0.211,0.433-0.27,0.671l-2.182,0.021
			C16.391,62.2,16.701,61.443,17.174,60.804z M16.291,64.342l2.198-0.021c0.064,0.233,0.158,0.455,0.281,0.656l-1.537,1.565
			C16.749,65.917,16.415,65.165,16.291,64.342z M18.18,67.458l1.529-1.559c0.203,0.115,0.428,0.201,0.661,0.26l0.021,2.188
			C19.569,68.243,18.817,67.928,18.18,67.458z M25.71,62.938l-2.183,0.021c-0.063-0.237-0.159-0.458-0.281-0.665l1.534-1.563
			C25.266,61.362,25.588,62.112,25.71,62.938z M21.616,58.913c0.83,0.106,1.587,0.42,2.226,0.896l-1.531,1.562
			c-0.209-0.122-0.434-0.215-0.674-0.275L21.616,58.913z M21.705,68.336l-0.021-2.188c0.234-0.062,0.455-0.152,0.657-0.274
			l1.558,1.532C23.273,67.887,22.527,68.217,21.705,68.336z M24.833,66.475l-1.571-1.541c0.117-0.205,0.216-0.424,0.276-0.661
			l2.181-0.021C25.611,65.077,25.308,65.841,24.833,66.475z"/>
		<path d="M77.514,56.037c-4.191,0.041-7.558,3.47-7.519,7.662c0.003,0.325,0.033,0.641,0.076,0.954
			c0.505,3.737,3.718,6.603,7.586,6.564c3.976-0.037,7.201-3.122,7.494-7.014c0.016-0.215,0.028-0.432,0.026-0.649
			C85.139,59.362,81.708,55.998,77.514,56.037z M76.885,58.926l0.021,2.184c-0.239,0.063-0.461,0.16-0.668,0.286l-1.562-1.53
			C75.307,59.375,76.06,59.048,76.885,58.926z M73.757,60.804l1.564,1.533c-0.12,0.21-0.211,0.433-0.271,0.671l-2.182,0.021
			C72.975,62.2,73.284,61.443,73.757,60.804z M72.874,64.342l2.198-0.021c0.063,0.233,0.158,0.455,0.281,0.656l-1.537,1.565
			C73.332,65.917,72.998,65.165,72.874,64.342z M74.763,67.458l1.529-1.559c0.203,0.115,0.428,0.201,0.661,0.26l0.021,2.188
			C76.152,68.243,75.4,67.928,74.763,67.458z M82.293,62.938L80.11,62.96c-0.063-0.237-0.159-0.458-0.281-0.665l1.534-1.563
			C81.85,61.362,82.172,62.112,82.293,62.938z M78.199,58.913c0.83,0.106,1.587,0.42,2.226,0.896l-1.53,1.562
			c-0.209-0.122-0.435-0.215-0.675-0.275L78.199,58.913z M78.288,68.336l-0.021-2.188c0.233-0.062,0.454-0.152,0.656-0.274
			l1.559,1.532C79.856,67.887,79.11,68.217,78.288,68.336z M81.416,66.475l-1.571-1.541c0.117-0.205,0.217-0.424,0.276-0.661
			l2.181-0.021C82.194,65.077,81.892,65.841,81.416,66.475z"/>
	</g>
</g>
<g>
</g>
<g>
</g>
<g>
</g>
<g>
</g>
<g>
</g>
<g>
</g>
<g>
</g>
<g>
</g>
<g>
</g>
<g>
</g>
<g>
</g>
<g>
</g>
<g>
</g>
<g>
</g>
<g>
</g>
</svg>
